# 3ds Max Wavefront OBJ Exporter v0.97b - (c)2007 guruware
# File Created: 26.01.2013 17:03:23

#
# object Barrel1
#

v  -9.604605 2.282497 0.066383
v  -7.207607 2.282497 0.066383
v  -7.207607 -2.309294 0.066383
v  -9.604605 -2.309294 0.066383
v  -9.604605 -2.309294 9.038569
v  -9.604605 2.282497 9.038569
v  -10.702002 0.897291 9.038569
v  -10.702002 -0.924088 9.038569
v  -9.604605 -3.004127 0.761216
v  -7.207607 -3.004127 0.761216
v  -7.207607 -3.004127 8.343737
v  -9.604605 -3.004127 8.343737
v  -5.415376 -1.211897 0.761216
v  -5.415376 1.185101 0.761216
v  -5.415376 1.185101 8.343737
v  -5.415376 -1.211897 8.343737
v  -7.207607 2.977331 0.761216
v  -9.604605 2.977331 0.761216
v  -9.604605 2.977331 8.343737
v  -7.207607 2.977331 8.343737
v  -11.396834 1.185101 0.761216
v  -11.396834 -1.211897 0.761216
v  -11.396834 -1.211897 8.343737
v  -11.396834 1.185101 8.343737
v  -7.207607 -2.309294 9.038569
v  -7.207607 2.282497 9.038569
v  -6.110210 -0.924088 9.038569
v  -6.110210 0.897291 9.038569
v  -6.110210 0.897291 0.066383
v  -6.110210 -0.924088 0.066383
v  -10.702002 -0.924088 0.066383
v  -10.702002 0.897291 0.066383
# 32 vertices

vn -0.275133 0.430605 -0.859582
vn 0.231168 0.428865 -0.873291
vn 0.275133 -0.430605 -0.859582
vn -0.231168 -0.428865 -0.873291
vn -0.275133 -0.430605 0.859582
vn -0.231168 0.428865 0.873291
vn -0.406079 0.136155 0.903638
vn -0.407551 -0.162473 0.898613
vn -0.341586 -0.875579 -0.341586
vn 0.349780 -0.869376 -0.349056
vn 0.341586 -0.875579 0.341586
vn -0.349780 -0.869375 0.349056
vn 0.858735 -0.355700 -0.368852
vn 0.866388 0.347035 -0.359080
vn 0.858735 0.355700 0.368852
vn 0.866388 -0.347035 0.359080
vn 0.341586 0.875579 -0.341586
vn -0.349780 0.869376 -0.349056
vn -0.341586 0.875579 0.341586
vn 0.349780 0.869375 0.349056
vn -0.858735 0.355700 -0.368852
vn -0.866388 -0.347035 -0.359080
vn -0.858735 -0.355700 0.368852
vn -0.866388 0.347035 0.359080
vn 0.231168 -0.428865 0.873291
vn 0.275133 0.430605 0.859582
vn 0.406079 -0.136155 0.903638
vn 0.407551 0.162473 0.898613
vn 0.406079 0.136155 -0.903638
vn 0.407551 -0.162473 -0.898613
vn -0.406079 -0.136155 -0.903638
vn -0.407551 0.162473 -0.898613
# 32 vertex normals

vt 0.127015 0.388078 0.000000
vt 0.127015 0.198133 0.000000
vt 0.490881 0.198133 0.000000
vt 0.490881 0.388078 0.000000
vt 0.381114 0.475038 0.000000
vt 0.236783 0.475038 0.000000
vt 0.043947 0.673831 0.538654
vt 0.043947 0.614857 0.538654
vt 0.454750 0.614858 0.538654
vt 0.454750 0.673831 0.538654
vt 0.043947 0.552308 0.538654
vt 0.043947 0.493334 0.538654
vt 0.454750 0.493334 0.538654
vt 0.454750 0.552308 0.538654
vt 0.043947 0.916877 0.538654
vt 0.043947 0.857904 0.538654
vt 0.454750 0.857904 0.538654
vt 0.454750 0.916877 0.538654
vt 0.043947 0.795354 0.538654
vt 0.043947 0.736381 0.538654
vt 0.454750 0.736381 0.538654
vt 0.454750 0.795354 0.538654
vt 0.043947 0.979427 0.538654
vt 0.454750 0.979427 0.538654
vt 0.236783 0.111172 0.000000
vt 0.381114 0.111172 0.000000
vt 0.006302 0.736653 0.412929
vt 0.006302 0.795082 0.412929
vt 0.006302 0.850170 0.432987
vt 0.006302 0.924611 0.432987
vt 0.006302 0.493607 0.412929
vt 0.006302 0.552036 0.412929
vt 0.006302 0.607124 0.432987
vt 0.006302 0.681564 0.432987
vt 0.492395 0.681565 0.432987
vt 0.492395 0.607124 0.432987
vt 0.492395 0.552036 0.412929
vt 0.492395 0.493607 0.412929
vt 0.492395 0.924611 0.432987
vt 0.492395 0.850170 0.432987
vt 0.492395 0.795082 0.412929
vt 0.492395 0.736653 0.412929
vt 0.006302 0.979699 0.412929
vt 0.492395 0.979699 0.412929
# 44 texture coords

g Barrel1
s 1
f 1/1/1 2/2/2 3/3/3 4/4/4 
f 5/1/5 6/4/6 7/5/7 8/6/8 
f 9/7/9 10/8/10 11/9/11 12/10/12 
f 13/11/13 14/12/14 15/13/15 16/14/16 
f 17/15/17 18/16/18 19/17/19 20/18/20 
f 21/19/21 22/20/22 23/21/23 24/22/24 
f 10/8/10 13/11/13 16/14/16 11/9/11 
f 12/10/12 23/21/23 22/20/22 9/7/9 
f 14/23/14 17/15/17 20/18/20 15/24/15 
f 18/16/18 21/19/21 24/22/24 19/17/19 
f 25/2/25 26/3/26 6/4/6 5/1/5 
f 27/25/27 28/26/28 26/3/26 25/2/25 
f 29/25/29 30/26/30 3/3/3 2/2/2 
f 31/5/31 32/6/32 1/1/1 4/4/4 
f 31/27/31 22/20/22 21/19/21 32/28/32 
f 1/29/1 18/16/18 17/15/17 2/30/2 
f 29/31/29 14/12/14 13/11/13 30/32/30 
f 3/33/3 10/8/10 9/7/9 4/34/4 
f 5/35/5 12/10/12 11/9/11 25/36/25 
f 27/37/27 16/14/16 15/13/15 28/38/28 
f 26/39/26 20/18/20 19/17/19 6/40/6 
f 7/41/7 24/22/24 23/21/23 8/42/8 
f 22/20/22 31/27/31 4/34/4 9/7/9 
f 10/8/10 3/33/3 30/32/30 13/11/13 
f 18/16/18 1/29/1 32/28/32 21/19/21 
f 14/23/14 29/43/29 2/30/2 17/15/17 
f 12/10/12 5/35/5 8/42/8 23/21/23 
f 16/14/16 27/37/27 25/36/25 11/9/11 
f 24/22/24 7/41/7 6/40/6 19/17/19 
f 20/18/20 26/39/26 28/44/28 15/24/15 
# 30 polygons

